<?xml version="1.0" encoding="UTF-8"?>
<svg id="Calque_2" xmlns="http://www.w3.org/2000/svg" viewBox="0 0 705.17 246.29">
  <defs>
    <style>
      .cls-1 {
        letter-spacing: -.05em;
      }

      .cls-2, .cls-3 {
        fill: #fff;
      }

      .cls-4 {
        letter-spacing: -.02em;
      }

      .cls-3 {
        font-family: Chopsic, Chopsic;
        font-size: 80.46px;
      }
    </style>
  </defs>
  <g id="Calque_1-2" data-name="Calque_1">
    <g>
      <path class="cls-2" d="M281.91,119.87c-25.78,8.6-50.66,16.89-75.53,25.19-.2-.5-.39-1.01-.59-1.51,15.31-6.28,30.74-12.28,45.88-18.94,8.63-3.79,16.78-8.65,26.4-13.68-.08-.36-.48-2.96-1.17-5.47-3.95-14.4,1.61-27.77,15.15-33.23,31.42-12.67,62.99-24.98,94.68-36.97,12.97-4.91,23.52-.82,30.39,11.27,3.26,5.74,6.07,12.08,7.42,18.5,2.96,14.1-3.15,24.41-16.62,29.71-28.69,11.3-57.41,22.55-86.15,33.74-18.22,7.1-26.33,5.25-39.88-8.59ZM283.49,98.22c6.3-5.65,11.65-13.3,18.95-16.48,23.73-10.32,48.15-19.07,72.36-28.27,13.94-5.3,13.99-5.18,19.55,9.23,1.66-.67,3.26-1.59,4.97-1.95,5.99-1.25,10.6-3.56,9.04-10.9-1.46-6.89-6.63-9.32-12.84-9.25-3.85.04-7.85,1.14-11.51,2.49-10.58,3.89-21.05,8.07-31.52,12.26-19.51,7.81-39.1,15.46-58.43,23.69-8.97,3.82-11.76,11.47-10.56,19.2Z"/>
      <path class="cls-2" d="M427.04,36.54c8.55-3.37,16.99-6.69,25.87-10.19,2.11,3.98,3.79,7.15,6.05,11.4,13-5.31,26.08-10.64,40.2-16.41-2.01-5.14-4.19-9.75-5.52-14.58-.55-1.99.72-4.49,1.16-6.75,1.85,1.12,4.65,1.81,5.39,3.44,5.91,13.04,11.53,26.23,16.93,39.49.51,1.26-1.07,3.37-1.68,5.09-1.71-.77-4.28-1.08-4.99-2.39-2.87-5.3-5.17-10.91-8.08-17.27-13.87,5.75-27.27,11.3-40.88,16.93.63,3.23,1.14,5.87,1.79,9.23-7.84,3.25-15.65,6.5-23.84,9.9,1.45,6.19,3.41,11.98,3.99,17.9.39,4.03-.78,8.36-2.06,12.3-.38,1.18-3.5,1.99-5.34,1.94-.76-.02-2.36-2.95-2.05-4.17,4.15-16.38-2.61-30.78-9.32-44.55-4.4-9.02-12.2-16.37-18.29-24.6-1.2-1.62-1.54-3.86-2.27-5.82,2.2-.38,4.77-1.65,6.5-.93,2.66,1.11,5.2,3.25,6.97,5.57,3.28,4.3,5.97,9.06,9.46,14.48Z"/>
    </g>
    <text class="cls-3" transform="translate(7.86 230.58)"><tspan x="0" y="0">SU</tspan><tspan class="cls-4" x="133.57" y="0">P</tspan><tspan x="198.39" y="0">A </tspan><tspan class="cls-1" x="280.89" y="0">S</tspan><tspan x="343.75" y="0">TEROID</tspan></text>
  </g>
</svg>